<?xml version="1.0" standalone="no"?><!DOCTYPE svg PUBLIC "-//W3C//DTD SVG 1.1//EN" "http://www.w3.org/Graphics/SVG/1.1/DTD/svg11.dtd"><svg t="1683429405864" class="icon" viewBox="0 0 1024 1024" version="1.1" xmlns="http://www.w3.org/2000/svg" p-id="6103" width="32" height="32" xmlns:xlink="http://www.w3.org/1999/xlink"><path d="M443.733333 0a170.666667 170.666667 0 0 0-170.666666 170.666667v614.4a170.666667 170.666667 0 0 0 341.333333 0V170.666667a170.666667 170.666667 0 0 0-170.666667-170.666667z m324.266667 204.8a51.2 51.2 0 1 1 102.4 0 51.2 51.2 0 0 1-102.4 0zM819.2 51.2a153.6 153.6 0 1 0 0 307.2 153.6 153.6 0 0 0 0-307.2z" fill="#FFAA44" p-id="6104"></path><path d="M716.8 750.933333a273.066667 273.066667 0 1 1-546.133333 0 273.066667 273.066667 0 0 1 546.133333 0z" fill="#FF7744" p-id="6105"></path><path d="M443.733333 375.466667a34.133333 34.133333 0 0 0-34.133333 34.133333v244.736a102.434133 102.434133 0 1 0 68.266667 0V409.6a34.133333 34.133333 0 0 0-34.133334-34.133333z" fill="#FFFFFF" p-id="6106"></path></svg>