<?xml version="1.0" standalone="no"?><!DOCTYPE svg PUBLIC "-//W3C//DTD SVG 1.1//EN" "http://www.w3.org/Graphics/SVG/1.1/DTD/svg11.dtd"><svg t="1683130720586" class="icon" viewBox="0 0 1024 1024" version="1.1" xmlns="http://www.w3.org/2000/svg" p-id="3447" width="32" height="32" xmlns:xlink="http://www.w3.org/1999/xlink"><path d="M464.225467 255.912606C295.834972 485.722126 184.257076 628.009535 184.257076 770.808769A266.660935 266.660935 0 0 0 464.225467 1023.650423a266.660935 266.660935 0 0 0 279.456566-252.841654c0-139.728283-107.99512-285.086643-279.456566-514.896163z m0 162.760417a201.147308 201.147308 0 0 1 34.804114 104.924169c0 124.885352-139.728283 145.35836-139.728282 69.608228-1.02365-49.647046 70.120054-127.956303 104.924168-174.532397zM352.647571 255.912606a1330.74555 1330.74555 0 0 0-165.319544-255.912606C73.191005 153.547564 0 250.282529 0 342.922892A179.138824 179.138824 0 0 0 178.115174 511.825212c44.528793-75.750131 104.924168-159.689466 174.532397-255.912606zM117.719799 226.738569c0-34.804114 47.599745-87.010286 69.608228-116.184323a140.751933 140.751933 0 0 1 25.591261 69.608229C209.848337 264.613634 117.719799 276.385614 117.719799 226.738569z m716.555296-98.782266a1330.74555 1330.74555 0 0 0-165.319543 255.912606 1092.235002 1092.235002 0 0 1 142.799234 252.841654A178.626999 178.626999 0 0 0 1023.650423 470.879195c0-92.640363-73.191005-188.863503-187.328027-342.922892zM767.737818 354.694872c0-34.804114 47.599745-87.010286 70.120054-116.184323A134.610031 134.610031 0 0 1 861.401831 307.095127c0 84.45116-92.128538 96.22314-92.128538 46.576094z" fill="#2DAAC8" p-id="3448"></path></svg>